{"title":"Johnny English Reborn (2011) 720p Blu-Ray x264 [Dual-Audio] [Eng","uid":12168244,"size":1216423772,"categoryP":"video","categoryS":"movies","magnet":"?xt=urn:btih:d52d73f4d74dd42affcbefcc93b32bdd867a1436&amp;dn=Johnny+English+Reborn+%282011%29+720p+Blu-Ray+x264+%5BDual-Audio%5D+%5BEng&amp;tr=udp%3A%2F%2Ftracker.openbittorrent.com%3A80&amp;tr=udp%3A%2F%2Fopen.demonii.com%3A1337&amp;tr=udp%3A%2F%2Ftracker.coppersurfer.tk%3A6969&amp;tr=udp%3A%2F%2Fexodus.desync.com%3A6969","seeders":20,"leechers":9,"uploader":"praneet_gupta777","files":2,"time":1438044456,"description":"[center]\n[b][size=7]Johnny English Reborn (2011) 720p Blu-Ray x264 [Dual-Audio] [English 5.1 + Hindi 5.1] Esubs [PKG][/size][/b]\n\n\n\n\n\n[img]http://extraimago.com/images/2015/07/28/johnny-english-reborn-2011-dutch-r2-front-cover-100309.jpg[/img]\n\n\n[img]http://extraimago.com/images/2015/07/28/Untitled.png[/img]\n\n\n\n\n[img]http://img9.uploadhouse.com/fileuploads/15981/15981250a2a3770f9f004bcdf00afac92833ebdb.png[/img]\n\n\n[quote]\n\n\nGeneral\nUnique ID                   : 221815527970277349650244664194307863669 (0xA6E01DE2FCC342F6B93F927760023475)\nComplete name               : G:Johnny English Reborn (2011) 720p Blu-Ray x264 [Dual-Audio] [English 5.1 + Hindi 5.1] Esubs [PKG]Johnny English Reborn (2011) 720p Blu-Ray x264 [Dual-Audio] [English 5.1 + Hindi 5.1] Esubs [PKG].mkv\nFormat                      : Matroska\nFormat version              : Version 4 / Version 2\nFile size                   : 1.13 GiB\nDuration                    : 1h 41mn\nOverall bit rate            : 1 591 Kbps\nMovie name                  : Johnny English Reborn (2011) 720p Blu-Ray x264 [Dual-Audio] [English 5.1 + Hindi 5.1] Esubs [PKG]\nEncoded date                : UTC 2015-07-20 15:17:50\nWriting application         : mkvmerge v7.7.0 ('Six Voices') 64bit built on Feb 28 2015 23:39:33\nWriting library             : libebml v1.3.1 + libmatroska v1.4.2\n_STATISTICS_WRITING_APP     : mkvmerge v7.7.0 ('Six Voices') 64bit built on Feb 28 2015 23:39:33\nNUMBER_OF_FRAMES            : 190052\nNUMBER_OF_BYTES             : 170286592\n\nVideo\nID                          : 1\nFormat                      : AVC\nFormat/Info                 : Advanced Video Codec\nFormat profile              : &lt;a class=&quot;__cf_email__&quot; href=&quot;/cdn-cgi/l/email-protection&quot; data-cfemail=&quot;2068494748606c140e11&quot;&gt;[email&amp;#160;protected]&lt;/a&gt;&lt;script data-cfhash='f9e31' type=&quot;text/javascript&quot;&gt;\n/* &lt;![CDATA[ */!function(){try{var t=&quot;currentScript&quot;in document?document.currentScript:function(){for(var t=document.getElementsByTagName(&quot;script&quot;),e=t.length;e--;)if(t[e].getAttribute(&quot;data-cfhash&quot;))return t[e]}();if(t&amp;&amp;t.previousSibling){var e,r,n,i,c=t.previousSibling,a=c.getAttribute(&quot;data-cfemail&quot;);if(a){for(e=&quot;&quot;,r=parseInt(a.substr(0,2),16),n=2;a.length-n;n+=2)i=parseInt(a.substr(n,2),16)^r,e+=String.fromCharCode(i);e=document.createTextNode(e),c.parentNode.replaceChild(e,c)}t.parentNode.removeChild(t);}}catch(u){}}()/* ]]&gt; */&lt;/script&gt;\nFormat settings, CABAC      : Yes\nFormat settings, ReFrames   : 9 frames\nCodec ID                    : V_MPEG4/ISO/AVC\nDuration                    : 1h 41mn\nBit rate                    : 1 141 Kbps\nWidth                       : 1 280 pixels\nHeight                      : 528 pixels\nDisplay aspect ratio        : 2.40:1\nFrame rate mode             : Constant\nFrame rate                  : 23.976 fps\nColor space                 : YUV\nChroma subsampling          : 4:2:0\nBit depth                   : 8 bits\nScan type                   : Progressive\nBits/(Pixel*Frame)          : 0.070\nStream size                 : 806 MiB (70%)\nTitle                       : [PKG]\nWriting library             : x264 core 142 r2431 ac76440\nEncoding settings           : cabac=1 / ref=9 / deblock=1:-1:-1 / analyse=0x3:0x133 / me=umh / subme=10 / psy=1 / psy_rd=1.00:0.00 / mixed_ref=1 / me_range=24 / chroma_me=1 / trellis=2 / 8x8dct=1 / cqm=0 / deadzone=21,11 / fast_pskip=1 / chroma_qp_offset=-2 / threads=24 / lookahead_threads=2 / sliced_threads=0 / nr=0 / decimate=1 / interlaced=0 / bluray_compat=0 / constrained_intra=0 / bframes=6 / b_pyramid=2 / b_adapt=2 / b_bias=0 / direct=3 / weightb=1 / open_gop=0 / weightp=2 / keyint=240 / keyint_min=23 / scenecut=40 / intra_refresh=0 / rc_lookahead=60 / rc=2pass / mbtree=1 / bitrate=1141 / ratetol=1.0 / qcomp=0.60 / qpmin=10 / qpmax=51 / qpstep=4 / cplxblur=20.0 / qblur=0.5 / vbv_maxrate=62500 / vbv_bufsize=78125 / nal_hrd=none / filler=0 / ip_ratio=1.40 / aq=1:1.00\nDefault                     : Yes\nForced                      : No\n\nAudio #1\nID                          : 2\nFormat                      : AC-3\nFormat/Info                 : Audio Coding 3\nMode extension              : CM (complete main)\nFormat settings, Endianness : Big\nCodec ID                    : A_AC3\nDuration                    : 1h 41mn\nBit rate mode               : Constant\nBit rate                    : 224 Kbps\nChannel(s)                  : 6 channels\nChannel positions           : Front: L C R, Side: L R, LFE\nSampling rate               : 48.0 KHz\nBit depth                   : 16 bits\nCompression mode            : Lossy\nStream size                 : 162 MiB (14%)\nTitle                       : [PKG]\nLanguage                    : Hindi\nDefault                     : Yes\nForced                      : Yes\n\nAudio #2\nID                          : 3\nFormat                      : AC-3\nFormat/Info                 : Audio Coding 3\nMode extension              : CM (complete main)\nFormat settings, Endianness : Big\nCodec ID                    : A_AC3\nDuration                    : 1h 41mn\nBit rate mode               : Constant\nBit rate                    : 224 Kbps\nChannel(s)                  : 6 channels\nChannel positions           : Front: L C R, Side: L R, LFE\nSampling rate               : 48.0 KHz\nBit depth                   : 16 bits\nCompression mode            : Lossy\nStream size                 : 162 MiB (14%)\nTitle                       : [PKG]\nLanguage                    : English\nDefault                     : No\n\n\nText\nID                          : 4\nFormat                      : UTF-8\nCodec ID                    : S_TEXT/UTF8\nCodec ID/Info               : UTF-8 Plain Text\nTitle                       : [PKG]\nLanguage                    : English\nDefault                     : Yes\n\n\n[color=navy][size=6][b]SAMPLE WITHIN TORRENT[/b][/size][/color]\n\n\n\n\n\n[img]http://icons.iconarchive.com/icons/tribalmarkings/colorflow/256/screenshots-icon.png[/img]\n\n\n[img]http://extraimago.com/images/2015/07/28/vlcsnap-2015-07-28-16h07m40s211.png[/img]\n\n[img]http://extraimago.com/images/2015/07/28/vlcsnap-2015-07-28-16h08m04s214.png[/img]\n\n[img]http://extraimago.com/images/2015/07/28/vlcsnap-2015-07-28-16h09m01s6.png[/img]\n\n[img]http://extraimago.com/images/2015/07/28/vlcsnap-2015-07-28-16h09m11s101.png[/img]\n\n[img]http://extraimago.com/images/2015/07/28/vlcsnap-2015-07-28-16h09m47s228.png[/img]\n\n[img]http://extraimago.com/images/2015/07/28/vlcsnap-2015-07-28-16h07m49s75.png[/img]\n\n[img]http://extraimago.com/images/2015/07/28/JohnnyEnglishReborn2011720pBlu-Rayx264Dual-AudioEnglish5.1Hindi5.1EsubsPKG.mkv_thumbs_2015.07.28_16.03.07.jpg[/img]\n\n\n[/center]","torrent":{"xt":"urn:btih:d52d73f4d74dd42affcbefcc93b32bdd867a1436","amp;dn":"Johnny+English+Reborn+%282011%29+720p+Blu-Ray+x264+%5BDual-Audio%5D+%5BEng","amp;tr":["udp%3A%2F%2Ftracker.openbittorrent.com%3A80","udp%3A%2F%2Fopen.demonii.com%3A1337","udp%3A%2F%2Ftracker.coppersurfer.tk%3A6969","udp%3A%2F%2Fexodus.desync.com%3A6969"],"infoHash":"d52d73f4d74dd42affcbefcc93b32bdd867a1436","infoHashBuffer":{"type":"Buffer","data":[213,45,115,244,215,77,212,42,255,203,239,204,147,179,43,221,134,122,20,54]},"announce":[],"urlList":[]}}